<svg width="400" height="300" viewBox="0 0 400 300" fill="none" xmlns="http://www.w3.org/2000/svg">
  <rect width="400" height="300" fill="#f9fafb"/>
  
  <!-- Victorian-style buildings -->
  <rect x="40" y="140" width="70" height="130" fill="#ef4444"/>
  <polygon points="40,140 75,110 110,140" fill="#dc2626"/>
  
  <rect x="120" y="120" width="75" height="150" fill="#f59e0b"/>
  <polygon points="120,120 157.5,90 195,120" fill="#d97706"/>
  
  <rect x="205" y="130" width="80" height="140" fill="#10b981"/>
  <polygon points="205,130 245,100 285,130" fill="#059669"/>
  
  <rect x="295" y="150" width="65" height="120" fill="#3b82f6"/>
  <polygon points="295,150 327.5,125 360,150" fill="#2563eb"/>
  
  <!-- Windows -->
  <rect x="50" y="160" width="12" height="16" fill="#fef3c7"/>
  <rect x="70" y="160" width="12" height="16" fill="#fef3c7"/>
  <rect x="50" y="190" width="12" height="16" fill="#fef3c7"/>
  <rect x="70" y="190" width="12" height="16" fill="#fef3c7"/>
  
  <rect x="135" y="140" width="14" height="18" fill="#fef3c7"/>
  <rect x="160" y="140" width="14" height="18" fill="#fef3c7"/>
  <rect x="135" y="170" width="14" height="18" fill="#fef3c7"/>
  <rect x="160" y="170" width="14" height="18" fill="#fef3c7"/>
  
  <rect x="220" y="150" width="15" height="20" fill="#fef3c7"/>
  <rect x="250" y="150" width="15" height="20" fill="#fef3c7"/>
  <rect x="220" y="185" width="15" height="20" fill="#fef3c7"/>
  <rect x="250" y="185" width="15" height="20" fill="#fef3c7"/>
  
  <!-- Hills in background -->
  <path d="M0 180 Q100 160 200 170 T400 165 L400 300 L0 300 Z" fill="#6ee7b7"/>
  <path d="M0 200 Q150 185 300 190 T400 185 L400 300 L0 300 Z" fill="#34d399"/>
  
  <!-- Sky -->
  <defs>
    <linearGradient id="sfSkyGradient" x1="0%" y1="0%" x2="0%" y2="100%">
      <stop offset="0%" style="stop-color:#fef3c7;stop-opacity:1" />
      <stop offset="100%" style="stop-color:#fed7aa;stop-opacity:1" />
    </linearGradient>
  </defs>
  <rect width="400" height="180" fill="url(#sfSkyGradient)"/>
  
  <!-- Golden Gate Bridge silhouette -->
  <rect x="50" y="80" width="4" height="60" fill="#dc2626"/>
  <rect x="346" y="80" width="4" height="60" fill="#dc2626"/>
  <path d="M54 90 Q200 70 346 90" stroke="#dc2626" stroke-width="2" fill="none"/>
  
  <!-- Text overlay -->
  <text x="200" y="40" text-anchor="middle" fill="#1f2937" font-family="Arial, sans-serif" font-size="18" font-weight="bold">San Francisco</text>
</svg>